<svg id="Layer_1" enable-background="new 0 0 460.586 460.586" height="512" viewBox="0 0 460.586 460.586" width="512" xmlns="http://www.w3.org/2000/svg"><path d="m404.772 189.286v81h-350v-81c0-8.837 7.163-16 16-16h61v-75c0-8.837 7.163-16 16-16h22c8.837 0 16 7.163 16 16v75h86v-75c0-8.837 7.163-16 16-16h22c8.837 0 16 7.163 16 16v75h63c8.837 0 16 7.163 16 16z" fill="#ffe773"/><path d="m185.232 94.136c-1.652-.248-.632-.18-24.46-.18-8.84 0-16 7.16-16 16v63.33h-13v-75c0-8.84 7.16-16 16-16h22c7.4 0 13.63 5.02 15.46 11.85z" fill="#ffec8f"/><path d="m325.232 94.136c-1.652-.248-.632-.18-24.46-.18-8.84 0-16 7.16-16 16v63.33h-13v-75c0-8.84 7.16-16 16-16h22c7.4 0 13.63 5.02 15.46 11.85z" fill="#ffec8f"/><path d="m404.772 270.286h-350v-81c0-8.837 7.163-16 16-16 1.67 0 319.67 0 318 0 8.837 0 16 7.163 16 16z" fill="#e8f8fc"/><path d="m460.508 279.386-11.82 85.101c-1.099 7.91-7.862 13.799-15.848 13.799h-396.765c-9.687 0-17.151-8.539-15.856-18.139l5.253-38.941c-11.494-10.961-20.213-24.719-25.097-40.499-1.6-5.169 2.22-10.421 7.631-10.421h444.578c4.856 0 8.592 4.29 7.924 9.1z" fill="#aaa"/><path d="m318.772 340.286h-198c-8.836 0-16-7.164-16-16s7.164-16 16-16h198c8.836 0 16 7.164 16 16s-7.163 16-16 16z" fill="#999"/><path d="m377.772 340.286h-12c-8.836 0-16-7.164-16-16s7.164-16 16-16h12c8.836 0 16 7.164 16 16s-7.163 16-16 16z" fill="#999"/><path d="m404.772 238.286h-35c-8.836 0-16-7.164-16-16s7.164-16 16-16h35z" fill="#d6f4fc"/><g fill="#fff"><path d="m295.852 223.855c-.864-8.929 5.712-16.662 14.35-17.49 12.546-1.207 21.703 11.929 15.68 23.46-7.62 14.021-28.543 9.55-30.03-5.97z"/><path d="m249.402 212.136c6.083-7.379 17.064-7.776 23.68-1.16 9.56 9.573 3.605 25.952-9.74 27.23-14.071 1.347-22.953-14.885-13.94-26.07z"/><path d="m198.472 231.165c-8.806-13.061 4.914-29.7 19.42-23.65 14.865 5.877 12.419 29.065-4.55 30.69-6.108.586-11.776-2.346-14.87-7.04z"/><path d="m158.642 237.976c-20.721-4.466-14.572-35.39 6.26-31.38 20.657 4.452 14.589 35.393-6.26 31.38z"/><path d="m95.852 223.855c-.851-8.8 5.578-16.65 14.35-17.49 9.526-.917 17.57 6.587 17.57 15.92 0 8.283-6.362 15.147-14.43 15.92-8.921.855-16.661-5.699-17.49-14.35z"/></g><path d="m325.772 98.286v27h-54v-27c0-8.837 7.163-16 16-16h22c8.837 0 16 7.163 16 16z" fill="#aaa"/><path d="m185.772 98.286v27h-54v-27c0-8.837 7.163-16 16-16h22c8.837 0 16 7.163 16 16z" fill="#aaa"/><path d="m310.207 93.952c-2.609.002-5.718.003-9.429.003-8.837 0-16.006 7.163-16.006 16v15.33h-13v-27c0-8.837 7.163-16 16-16 23.407 0 22.169-.017 22.919.026 7.437.421 6.966 11.636-.484 11.641z" fill="#b2b2b2"/><path d="m170.207 93.952c-2.609.002-5.718.003-9.429.003-8.837 0-16.006 7.163-16.006 16v15.33h-13v-27c0-8.837 7.163-16 16-16 23.407 0 22.169-.017 22.919.026 7.437.421 6.966 11.636-.484 11.641z" fill="#b2b2b2"/><path d="m388.861 193.286c-55.127 0-242.072 0-298.094 0-8.837 0-15.995 7.163-15.995 16v61h-20v-81c0-8.837 7.163-16 16-16h318c13.924 0 13.012 20 .089 20z" fill="#f1fafc"/><path d="m460.508 279.386-1.236 8.899h-456.2c-1.003-2.489-1.909-5.038-2.712-7.64-1.588-5.145 2.267-10.36 7.651-10.36h444.572c4.857.001 8.593 4.291 7.925 9.101z" fill="#b2b2b2"/><path d="m432.842 378.286c-420.049 0-397.332.102-399.208-.185-10.259-1.569-9.122-16.745 1.798-16.745 276.63 0 367.287.187 397.565-.037 10.978-.081 11.913 16.967-.155 16.967z" fill="#fe4f60"/></svg>